<svg width="38" height="37" viewBox="0 0 38 37" fill="none" xmlns="http://www.w3.org/2000/svg">
<path d="M19.374 0.667969H18.6266L18.3177 0.673626C14.1037 0.839219 10.7727 4.31356 10.7729 8.54304V12.9629L10.7828 13.3518V13.3518C10.8811 15.4243 11.7601 17.382 13.2423 18.8295L15.2124 20.7545L15.3393 20.8945C15.579 21.1872 15.7102 21.555 15.7102 21.9369V22.2056L15.6975 22.3993C15.6334 22.9176 15.3176 23.3704 14.8542 23.6086L2.45942 29.9647L2.24506 30.0849C1.26555 30.6835 0.667607 31.7505 0.666992 32.9008V33.4524L0.675453 33.6646C0.782632 34.9856 1.88545 36.0251 3.23084 36.0251H34.7698C36.1852 36.0251 37.3329 34.8748 37.3337 33.4552V32.9037C37.3337 31.6633 36.6426 30.5276 35.5412 29.9647L23.1465 23.6086C22.6206 23.339 22.2899 22.7965 22.2904 22.2042V21.9354C22.2904 21.4913 22.471 21.0656 22.7883 20.7545L24.7584 18.8295C26.3365 17.2879 27.2265 15.1722 27.2263 12.9629V8.54304V8.54304C27.2263 4.19377 23.7107 0.667969 19.374 0.667969Z" fill="#CCCCCC"/>
</svg>
